<?xml version="1.0" encoding="UTF-8" standalone="no"?>
<svg width="88px" height="32px" viewBox="0 0 88 32" version="1.1" xmlns="http://www.w3.org/2000/svg" xmlns:xlink="http://www.w3.org/1999/xlink" xmlns:sketch="http://www.bohemiancoding.com/sketch/ns">
    <!-- Generator: Sketch 3.3.3 (12072) - http://www.bohemiancoding.com/sketch -->
    <title>logo-blue</title>
    <desc>Created with Sketch.</desc>
    <defs></defs>
    <g id="Page-1" stroke="none" stroke-width="1" fill="none" fill-rule="evenodd" sketch:type="MSPage">
        <g id="logo-blue" sketch:type="MSLayerGroup" fill="#DE1C00">
            <path d="M82.7651429,8.40190476 C81.2264762,8.40190476 79.9251429,9.12685714 79.0017143,10.4980952 C78.0838095,11.8611429 77.5986667,13.7638095 77.5986667,16 C77.5986667,18.2361905 78.0838095,20.1388571 79.0017143,21.5017143 C79.9251429,22.8731429 81.2264762,23.5979048 82.7651429,23.5979048 C84.3038095,23.5979048 85.6051429,22.8731429 86.5285714,21.5017143 C87.4462857,20.1388571 87.9314286,18.2361905 87.9314286,16 C87.9314286,13.7638095 87.4462857,11.8611429 86.5285714,10.4980952 C85.6051429,9.12685714 84.3038095,8.40190476 82.7651429,8.40190476 L82.7651429,8.40190476 L82.7651429,8.40190476 Z M82.7651429,21.7152381 C82.0295238,21.7152381 81.448381,21.2990476 80.988,20.4426667 C80.432,19.4081905 80.1257143,17.8304762 80.1257143,16 C80.1257143,14.1695238 80.432,12.591619 80.988,11.5573333 C81.448381,10.7009524 82.0295238,10.2845714 82.7651429,10.2845714 C83.5005714,10.2845714 84.0819048,10.7009524 84.5422857,11.5573333 C85.0982857,12.591619 85.404381,14.1693333 85.404381,16 C85.404381,17.8306667 85.0982857,19.4085714 84.5422857,20.4426667 C84.0819048,21.2990476 83.5005714,21.7152381 82.7651429,21.7152381 L82.7651429,21.7152381 L82.7651429,21.7152381 Z M49.4190476,13.9375238 L49.4190476,20.4731429 C49.4190476,22.1961905 50.8209524,23.5979048 52.544,23.5979048 C54.0468571,23.5979048 55.1822857,22.852381 55.600381,22.531619 C55.623619,22.5137143 55.6540952,22.508381 55.6820952,22.5173333 C55.7100952,22.5262857 55.7318095,22.548381 55.740381,22.5765714 L55.9925714,23.4019048 L57.8546667,23.4019048 L57.8546667,13.9375238 L55.4619048,13.9375238 L55.4619048,21.0144762 C55.4619048,21.0478095 55.4430476,21.0784762 55.4135238,21.0939048 C54.963619,21.3259048 54.076,21.7154286 53.1868571,21.7154286 C52.4289524,21.7154286 51.8118095,21.0986667 51.8118095,20.340381 L51.8118095,13.9375238 L49.4190476,13.9375238 L49.4190476,13.9375238 Z M73.3784762,23.4017143 L75.7714286,23.4017143 L75.7714286,16.8660952 C75.7714286,15.1430476 74.3695238,13.7411429 72.6464762,13.7411429 C71.3780952,13.7411429 70.3605714,14.2864762 69.8670476,14.6114286 C69.8394286,14.6295238 69.804381,14.6310476 69.775619,14.6154286 C69.7468571,14.5998095 69.7285714,14.5697143 69.7285714,14.5367619 L69.7285714,8.59828571 L67.3358095,8.59828571 L67.3358095,23.4017143 L69.7285714,23.4017143 L69.7285714,16.3245714 C69.7285714,16.2912381 69.7474286,16.2605714 69.7771429,16.2453333 C70.2268571,16.0131429 71.1146667,15.6238095 72.003619,15.6238095 C72.3708571,15.6238095 72.7161905,15.7668571 72.9758095,16.0264762 C73.2354286,16.2860952 73.3782857,16.631619 73.3782857,16.9986667 L73.3782857,23.4017143 L73.3784762,23.4017143 L73.3784762,23.4017143 Z M59.5794286,15.82 L61.0358095,15.82 C61.0851429,15.82 61.1251429,15.86 61.1251429,15.9093333 L61.1251429,21.1158095 C61.1251429,22.484381 62.2386667,23.5977143 63.6072381,23.5977143 C64.1034286,23.5977143 64.5929524,23.5260952 65.0638095,23.3847619 L65.0638095,21.6754286 C64.7891429,21.699619 64.4733333,21.7152381 64.2500952,21.7152381 C63.8462857,21.7152381 63.5179048,21.3866667 63.5179048,20.9830476 L63.5179048,15.9091429 C63.5179048,15.8598095 63.5579048,15.8198095 63.6072381,15.8198095 L65.0638095,15.8198095 L65.0638095,13.9373333 L63.6072381,13.9373333 C63.5579048,13.9373333 63.5179048,13.8973333 63.5179048,13.848 L63.5179048,10.7228571 L61.1251429,10.7228571 L61.1251429,13.848 C61.1251429,13.8973333 61.0851429,13.9373333 61.0358095,13.9373333 L59.5794286,13.9373333 L59.5794286,15.82 L59.5794286,15.82 Z M45.5925714,23.4017143 L48.0817143,23.4017143 L44.2961905,10.2 C43.9927619,9.14133333 43.011619,8.40190476 41.9102857,8.40190476 C40.8089524,8.40190476 39.8278095,9.14133333 39.5241905,10.2 L35.7386667,23.4017143 L38.228,23.4017143 L39.323619,19.5805714 C39.3346667,19.5422857 39.3697143,19.516 39.4095238,19.516 L44.4110476,19.516 C44.4508571,19.516 44.4860952,19.5422857 44.4969524,19.5805714 L45.5925714,23.4017143 L45.5925714,23.4017143 Z M43.8201905,17.6335238 L40.0007619,17.6335238 C39.9727619,17.6335238 39.9462857,17.620381 39.9293333,17.5977143 C39.9125714,17.575619 39.9072381,17.5464762 39.9148571,17.519619 L41.8245714,10.8594286 C41.835619,10.8211429 41.8706667,10.7948571 41.9104762,10.7948571 C41.9502857,10.7948571 41.9853333,10.8211429 41.9961905,10.8594286 L43.9060952,17.519619 C43.9137143,17.5466667 43.908381,17.575619 43.8914286,17.5977143 C43.8746667,17.620381 43.8481905,17.6335238 43.8201905,17.6335238 L43.8201905,17.6335238 L43.8201905,17.6335238 Z" id="Shape" sketch:type="MSShapeGroup"></path>
            <path d="M22.772381,25.8782857 L19.5628571,15.9994286 L27.964381,9.89561905 L17.5792381,9.89561905 L14.3695238,0.0171428571 L14.3685714,0.0144761905 L24.7552381,0.0144761905 L27.9657143,9.89466667 L27.9659048,9.89447619 L27.9685714,9.89295238 C29.8329524,15.6247619 27.9127619,22.144 22.772381,25.8782857 L22.772381,25.8782857 L22.772381,25.8782857 Z M5.96590476,25.8782857 L5.9632381,25.8801905 L14.3668571,31.9855238 L22.772381,25.8784762 L14.3695238,19.7729524 L5.96590476,25.8782857 L5.96590476,25.8782857 Z M0.771809524,9.89314286 L0.771809524,9.89314286 C-1.19085714,15.9352381 1.08742857,22.3375238 5.96419048,25.8794286 L5.96495238,25.876381 L9.17485714,15.9980952 L0.775238095,9.89542857 L11.1579048,9.89542857 L14.3678095,0.016952381 L14.3685714,0.0142857143 L3.98133333,0.0142857143 L0.771809524,9.89314286 L0.771809524,9.89314286 Z" id="Shape" sketch:type="MSShapeGroup"></path>
        </g>
    </g>
</svg>