<svg version="1.1" xmlns="http://www.w3.org/2000/svg" xmlns:xlink="http://www.w3.org/1999/xlink" width="494px" height="38px" viewBox="0 0 494 38" x="0px" y="0px">
  <g>
    <path fill="#DB2007" d="m193.33594,18.61328c0,-6.8789 -5.01563,-13.01563 -14.08203,-13.01563c-9.06641,0 -14.02734,6.13673 -14.02734,13.01563l0,0.85547c0,6.87891 4.96094,13.11719 14.02734,13.11719c9.06641,0 14.08203,-6.23828 14.08203,-13.11719l0,-0.85547zm-14.08203,19.57422c-12.58594,0 -20.74609,-9.06641 -20.74609,-18.50781l0,-1.17188c0,-9.60156 8.16016,-18.50781 20.74609,-18.50781c12.64063,0 20.80078,8.90625 20.80078,18.50781l0,1.17188c0,9.44141 -8.16016,18.50781 -20.80078,18.50781"></path>
    <path fill="#DB2007" d="m21.81641,8.21484l-7.73438,14.93359l15.73438,0l-8,-14.93359zm15.30468,28.58594l-4.69531,-8.80078l-20.85156,0l-4.53516,8.80078l-7.03906,0l19.19922,-35.51953l5.54688,0l19.51953,35.51953l-7.14453,0zm0,0"></path>
    <path fill="#DB2007" d="m74.5625,38.1875c-12.75,0 -18.66797,-6.93359 -18.66797,-16.16016l0,-20.74609l6.61328,0l0,20.85156c0,6.5625 4.32031,10.45313 12.53125,10.45313c8.42969,0 11.89453,-3.89063 11.89453,-10.45313l0,-20.85156l6.66797,0l0,20.74609c0,8.80079 -5.65234,16.16016 -19.03906,16.16016"></path>
    <path fill="#DB2007" d="m130.72266,6.82813l0,29.97265l-6.66797,0l0,-29.97265l-15.51953,0l0,-5.54688l37.70703,0l0,5.54688l-15.51953,0zm0,0"></path>
    <path fill="#DB2007" d="m259.46875,36.80078l0,-28.10547l-1.76172,3.08984l-14.87891,25.01563l-3.25391,0l-14.71875,-25.01563l-1.76172,-3.08984l0,28.10547l-6.50391,0l0,-35.51953l9.22656,0l14.02344,24.375l1.65625,2.98438l1.65234,-2.98438l13.86719,-24.375l9.12109,0l0,35.51953l-6.66797,0zm0,0"></path>
    <path fill="#DB2007" d="m301.23047,8.21484l-7.73438,14.93359l15.73438,0l-8,-14.93359zm15.30859,28.58594l-4.69531,-8.80078l-20.85156,0l-4.53516,8.80078l-7.03906,0l19.19922,-35.51953l5.54688,0l19.51953,35.51953l-7.14453,0zm0,0"></path>
    <path fill="#DB2007" d="m350.5625,6.82813l0,29.97265l-6.66406,0l0,-29.97265l-15.52344,0l0,-5.54688l37.71094,0l0,5.54688l-15.52344,0zm0,0"></path>
    <path fill="#DB2007" d="m399.46875,6.82813l0,29.97265l-6.66406,0l0,-29.97265l-15.51953,0l0,-5.54688l37.70703,0l0,5.54688l-15.52344,0zm0,0"></path>
    <path fill="#DB2007" d="m431.41797,36.80078l0,-32.16015c2.66406,0 3.73047,-1.44141 3.73047,-3.35938l2.82813,0l0,35.51953l-6.55859,0zm0,0"></path>
    <path fill="#DB2007" d="m490.19141,11.30859c-3.19922,-2.9375 -7.89453,-5.70703 -14.23828,-5.70703c-9.49609,0 -14.82813,6.50782 -14.82813,13.27734l0,0.69531c0,6.71875 5.38672,13.01172 15.30469,13.01172c5.92188,0 10.82813,-2.82422 13.92188,-5.70703l4,4.21484c-3.89453,3.83984 -10.50781,7.09375 -18.34766,7.09375c-13.44141,0 -21.59766,-8.74609 -21.59766,-18.34766l0,-1.17188c0,-9.60156 8.90234,-18.66797 21.91797,-18.66797c7.51953,0 14.34766,3.14844 18.02734,7.09375l-4.16016,4.21484zm0,0"></path>
    <path fill="#DB2007" d="m183.64453,12.35938c1.20313,0.77343 1.53906,2.38671 0.76172,3.59375l-6.08203,9.41796c-0.78125,1.21094 -2.38672,1.55859 -3.58594,0.78516c-1.20313,-0.77734 -1.54297,-2.38281 -0.76172,-3.59375l6.08203,-9.41797c0.78125,-1.21094 2.38672,-1.55859 3.58594,-0.78515"></path>
  </g>
</svg>
