<?xml version="1.0" encoding="utf-8"?>
<!-- Generator: Adobe Illustrator 18.1.1, SVG Export Plug-In . SVG Version: 6.00 Build 0)  -->
<!DOCTYPE svg PUBLIC "-//W3C//DTD SVG 1.1//EN" "http://www.w3.org/Graphics/SVG/1.1/DTD/svg11.dtd">
<svg version="1.1" id="Layer_1" xmlns="http://www.w3.org/2000/svg" xmlns:xlink="http://www.w3.org/1999/xlink" x="0px" y="0px"
	 width="185.5px" height="60px" viewBox="-56 121 185.5 60" enable-background="new -56 121 185.5 60" xml:space="preserve">
<g>
	<g>
		<path fill="#DB2007" d="M-16.9,130.9l-16.3-9.4l0,0c-1.2-0.7-3.1-0.7-4.3,0l0,0l-16.3,9.4c-1.2,0.7-2.2,2.4-2.2,3.8v18.8
			c0,1.4,1,3.1,2.2,3.7l16.3,9.4l0,0c1.2,0.7,3.1,0.7,4.3,0l0,0l16.3-9.4c1.2-0.7,2.2-2.4,2.2-3.7v-18.8
			C-14.7,133.3-15.7,131.6-16.9,130.9z M-37.1,162.9l-15.4-8.9v-17.8l15.4,8.9V162.9z M-50.8,133.2l15.4-8.9l15.4,8.9l-15.4,8.9
			L-50.8,133.2z M-18.2,154l-15.4,8.9v-17.8l15.4-8.9V154z"/>
		<g>
			<path fill="#DB2007" d="M-32.6,169.1l-2.2,11.4c-0.1,0.6-1,0.6-1.1,0l-2.2-11.4c0.8,0.3,1.8,0.5,2.8,0.5
				C-34.4,169.7-33.4,169.5-32.6,169.1z"/>
			<path fill="#DB2007" d="M-26.4,165.6l-1.7,9.2c-0.1,0.6-1,0.6-1.1,0l-1.3-6.8L-26.4,165.6z"/>
			<path fill="#DB2007" d="M-20.9,162.4l-1.3,7.3c-0.1,0.6-1,0.6-1.1,0l-1-5.3L-20.9,162.4z"/>
			<path fill="#DB2007" d="M-16.2,159.7l-0.9,5.5c-0.1,0.6-1,0.6-1.1,0l-0.7-3.9L-16.2,159.7z"/>
			<path fill="#DB2007" d="M-40.5,167.8l-1.3,7c-0.1,0.6-1,0.6-1.1,0l-1.8-9.4L-40.5,167.8z"/>
			<path fill="#DB2007" d="M-46.7,164.2l-1,5.5c-0.1,0.6-1,0.6-1.1,0l-1.3-7.4L-46.7,164.2z"/>
			<path fill="#DB2007" d="M-51.8,161.3l-0.7,3.9c-0.1,0.6-1,0.6-1.1,0l-0.9-5.5L-51.8,161.3z"/>
		</g>
	</g>
	<g>
		<g>
			<path fill="#DB2007" d="M-9.1,134.8c0-0.8,0.4-1.3,1.2-1.3h1.4c0.8,0,1.2,0.5,1.2,1.3v16.7h7.9c0.8,0,1.3,0.4,1.3,1.2v0.8
				c0,0.8-0.4,1.3-1.3,1.3H-7.9c-0.8,0-1.2-0.4-1.2-1.3C-9.1,153.5-9.1,134.8-9.1,134.8z"/>
			<path fill="#DB2007" d="M13.7,145.4h0.6V145c0-2-1.3-2.7-2.9-2.7c-1.3,0-2.5,0.5-3.2,0.9c-0.8,0.3-1.3,0.2-1.7-0.5l-0.3-0.6
				c-0.4-0.7-0.2-1.3,0.5-1.7c1-0.5,2.7-1.3,5-1.3c4,0,6.3,2.2,6.3,6.1v8.3c0,0.8-0.4,1.3-1.3,1.3h-1c-0.8,0-1.2-0.4-1.2-1.3V153
				c0-0.4,0.1-0.7,0.1-0.7h-0.1c0,0-1.4,2.9-4.8,2.9c-2.8,0-5.1-1.8-5.1-4.6C4.8,146.2,10.3,145.4,13.7,145.4z M10.9,152.3
				c2.1,0,3.5-2.2,3.5-4v-0.6h-0.6c-1.9,0-5.2,0.3-5.2,2.6C8.6,151.3,9.3,152.3,10.9,152.3z"/>
			<path fill="#DB2007" d="M19.5,140.8c0-0.8,0.5-1.3,1.3-1.3H22c0.8,0,1.3,0.4,1.3,1.3v7.8c0,1.9,0.5,3.1,2.4,3.1
				c2.8,0,4.3-2.4,4.3-5.2v-5.8c0-0.8,0.4-1.3,1.3-1.3h1.3c0.8,0,1.3,0.4,1.3,1.3v12.8c0,0.8-0.4,1.3-1.3,1.3h-1.2
				c-0.8,0-1.2-0.4-1.2-1.3v-0.9c0-0.4,0.1-0.7,0.1-0.7h-0.1c-0.7,1.6-2.7,3.2-5.3,3.2c-3.3,0-5.3-1.6-5.3-5.8v-8.5H19.5z"/>
			<path fill="#DB2007" d="M35.5,140.8c0-0.8,0.4-1.3,1.2-1.3h1.2c0.8,0,1.2,0.4,1.2,1.3v0.9c0,0.3-0.1,0.7-0.1,0.7h0.1
				c0.7-1.3,2.3-3.2,5.4-3.2c3.4,0,5.3,1.8,5.3,5.8v8.6c0,0.8-0.4,1.3-1.3,1.3h-1.3c-0.8,0-1.3-0.4-1.3-1.3v-7.8
				c0-1.9-0.5-3.1-2.4-3.1c-2.7,0-4.4,2.2-4.4,5v5.9c0,0.8-0.4,1.3-1.2,1.3h-1.3c-0.8,0-1.2-0.4-1.2-1.3v-12.8H35.5z"/>
			<path fill="#DB2007" d="M59.8,139.2c2.5,0,4.1,0.9,5,1.5c0.6,0.4,0.7,1,0.2,1.7l-0.4,0.6c-0.5,0.7-1,0.7-1.7,0.3
				c-0.6-0.4-1.7-0.9-3-0.9c-2.8,0-4.6,2.1-4.6,4.7c0,2.6,1.8,4.8,4.8,4.8c1.5,0,2.7-0.7,3.4-1.2c0.8-0.4,1.3-0.3,1.7,0.4l0.3,0.6
				c0.4,0.7,0.3,1.3-0.3,1.7c-0.9,0.7-2.8,1.8-5.4,1.8c-5.1,0-8.3-3.6-8.3-8C51.5,142.9,54.8,139.2,59.8,139.2z"/>
			<path fill="#DB2007" d="M67.4,134.8c0-0.8,0.5-1.3,1.3-1.3H70c0.8,0,1.3,0.5,1.3,1.3v6.2c0,0.8-0.1,1.3-0.1,1.3h0.1
				c0.8-1.5,2.7-3.1,5.3-3.1c3.4,0,5.3,1.8,5.3,5.8v8.6c0,0.8-0.5,1.3-1.3,1.3h-1.3c-0.8,0-1.3-0.4-1.3-1.3v-7.8
				c0-1.9-0.5-3.1-2.4-3.1c-2.7,0-4.4,2.2-4.4,5.1v5.9c0,0.8-0.4,1.3-1.3,1.3h-1.3c-0.8,0-1.3-0.4-1.3-1.3v-18.9H67.4z"/>
		</g>
		<g>
			<path fill="#DB2007" d="M83.8,134.8c0-0.8,0.4-1.3,1.2-1.3h6.4c3.8,0,6.6,2,6.6,5.5c0,2-1,3.7-2.6,4.6v0.1c2.3,0.7,3.4,2.8,3.4,5
				c0,4.3-3.4,6.2-7.3,6.2H85c-0.8,0-1.2-0.4-1.2-1.3V134.8z M91.4,142.3c1.7,0,2.6-1.2,2.6-2.7s-0.9-2.6-2.7-2.6h-3.7v5.4
				L91.4,142.3L91.4,142.3z M91.7,151.5c2,0,3.1-1.3,3.1-3.1c0-1.8-1.1-3.1-3.1-3.1h-4.1v6.1h4.1V151.5z"/>
			<path fill="#DB2007" d="M108.3,139.2c4.6,0,8.4,3.3,8.4,8s-3.8,8-8.4,8c-4.7,0-8.4-3.3-8.4-8C99.9,142.5,103.7,139.2,108.3,139.2
				z M108.3,152c2.5,0,4.6-1.9,4.6-4.8c0-2.8-2.1-4.8-4.6-4.8s-4.5,1.9-4.5,4.8C103.8,150.1,105.9,152,108.3,152z"/>
			<path fill="#DB2007" d="M120.6,147.1l-4-6.1c-0.6-0.8-0.2-1.5,0.8-1.5h1.5c0.7,0,1.1,0.3,1.5,0.9l1.9,3.3c0.2,0.4,0.5,1,0.5,1
				h0.1c0,0,0.3-0.6,0.5-1l1.9-3.3c0.3-0.6,0.8-0.9,1.5-0.9h1.5c1,0,1.4,0.7,0.8,1.5l-3.9,6.1l4.1,6.2c0.5,0.8,0.2,1.5-0.8,1.5H127
				c-0.7,0-1.1-0.3-1.5-0.9l-2.2-3.6c-0.2-0.3-0.4-0.8-0.4-0.8h-0.1c0,0-0.2,0.5-0.4,0.8l-2.2,3.6c-0.4,0.6-0.8,0.9-1.5,0.9h-1.5
				c-1,0-1.4-0.7-0.8-1.5L120.6,147.1z"/>
		</g>
	</g>
</g>
</svg>
